<mxfile host="app.diagrams.net" agent="Mozilla/5.0 (Windows NT 10.0; Win64; x64) AppleWebKit/537.36 (KHTML, like Gecko) Chrome/131.0.0.0 Safari/537.36" version="24.9.1">
  <diagram name="Page-1" id="yWqdgSbsT_Y-NkE_eyum">
    <mxGraphModel dx="1034" dy="493" grid="1" gridSize="10" guides="1" tooltips="1" connect="1" arrows="1" fold="1" page="1" pageScale="1" pageWidth="827" pageHeight="1169" math="0" shadow="0">
      <root>
        <mxCell id="0" />
        <mxCell id="1" parent="0" />
        <mxCell id="24zMw3zpbfvIC8_C8cyf-3" value="" style="whiteSpace=wrap;html=1;aspect=fixed;" parent="1" vertex="1">
          <mxGeometry x="110" y="100" width="570" height="570" as="geometry" />
        </mxCell>
        <mxCell id="ATF7IUseUkX2ETucgYgJ-3" style="edgeStyle=orthogonalEdgeStyle;rounded=0;orthogonalLoop=1;jettySize=auto;html=1;exitX=1;exitY=0.5;exitDx=0;exitDy=0;entryX=0;entryY=0.5;entryDx=0;entryDy=0;" edge="1" parent="1" source="24zMw3zpbfvIC8_C8cyf-1" target="24zMw3zpbfvIC8_C8cyf-7">
          <mxGeometry relative="1" as="geometry" />
        </mxCell>
        <mxCell id="24zMw3zpbfvIC8_C8cyf-1" value="&lt;div&gt;&lt;font style=&quot;font-size: 10px;&quot;&gt;ouvrir qgis&lt;/font&gt;&lt;/div&gt;" style="ellipse;whiteSpace=wrap;html=1;" parent="1" vertex="1">
          <mxGeometry x="130" y="370" width="50" height="40" as="geometry" />
        </mxCell>
        <mxCell id="ATF7IUseUkX2ETucgYgJ-2" style="edgeStyle=orthogonalEdgeStyle;rounded=0;orthogonalLoop=1;jettySize=auto;html=1;exitX=1;exitY=0.3333333333333333;exitDx=0;exitDy=0;exitPerimeter=0;entryX=0;entryY=0.5;entryDx=0;entryDy=0;" edge="1" parent="1" source="24zMw3zpbfvIC8_C8cyf-2" target="24zMw3zpbfvIC8_C8cyf-1">
          <mxGeometry relative="1" as="geometry" />
        </mxCell>
        <mxCell id="24zMw3zpbfvIC8_C8cyf-2" value="Actor" style="shape=umlActor;verticalLabelPosition=bottom;verticalAlign=top;html=1;outlineConnect=0;" parent="1" vertex="1">
          <mxGeometry x="70" y="370" width="30" height="60" as="geometry" />
        </mxCell>
        <mxCell id="ATF7IUseUkX2ETucgYgJ-6" style="edgeStyle=orthogonalEdgeStyle;rounded=0;orthogonalLoop=1;jettySize=auto;html=1;exitX=0.5;exitY=1;exitDx=0;exitDy=0;entryX=0.5;entryY=0;entryDx=0;entryDy=0;" edge="1" parent="1" source="24zMw3zpbfvIC8_C8cyf-5" target="24zMw3zpbfvIC8_C8cyf-6">
          <mxGeometry relative="1" as="geometry" />
        </mxCell>
        <mxCell id="24zMw3zpbfvIC8_C8cyf-5" value="entrer sources de données exterieurs " style="ellipse;whiteSpace=wrap;html=1;" parent="1" vertex="1">
          <mxGeometry x="285" y="240" width="110" height="70" as="geometry" />
        </mxCell>
        <mxCell id="24zMw3zpbfvIC8_C8cyf-6" value="visualiser les risques de son département" style="ellipse;whiteSpace=wrap;html=1;" parent="1" vertex="1">
          <mxGeometry x="280" y="345" width="120" height="90" as="geometry" />
        </mxCell>
        <mxCell id="ATF7IUseUkX2ETucgYgJ-8" style="edgeStyle=orthogonalEdgeStyle;rounded=0;orthogonalLoop=1;jettySize=auto;html=1;exitX=1;exitY=0.5;exitDx=0;exitDy=0;entryX=0;entryY=0.5;entryDx=0;entryDy=0;" edge="1" parent="1" source="24zMw3zpbfvIC8_C8cyf-7" target="24zMw3zpbfvIC8_C8cyf-6">
          <mxGeometry relative="1" as="geometry" />
        </mxCell>
        <mxCell id="24zMw3zpbfvIC8_C8cyf-7" value="&lt;div&gt;&lt;font style=&quot;font-size: 10px;&quot;&gt;lancer le plugin&lt;br&gt;&lt;/font&gt;&lt;/div&gt;" style="ellipse;whiteSpace=wrap;html=1;" parent="1" vertex="1">
          <mxGeometry x="200" y="370" width="60" height="40" as="geometry" />
        </mxCell>
        <mxCell id="ATF7IUseUkX2ETucgYgJ-5" style="edgeStyle=orthogonalEdgeStyle;rounded=0;orthogonalLoop=1;jettySize=auto;html=1;exitX=0.5;exitY=1;exitDx=0;exitDy=0;entryX=0.5;entryY=0;entryDx=0;entryDy=0;" edge="1" parent="1" source="24zMw3zpbfvIC8_C8cyf-8" target="24zMw3zpbfvIC8_C8cyf-5">
          <mxGeometry relative="1" as="geometry" />
        </mxCell>
        <mxCell id="24zMw3zpbfvIC8_C8cyf-8" value="télécharger carte des ilots de chaleur du département (spé format)" style="ellipse;whiteSpace=wrap;html=1;" parent="1" vertex="1">
          <mxGeometry x="245" y="105" width="180" height="120" as="geometry" />
        </mxCell>
        <mxCell id="ATF7IUseUkX2ETucgYgJ-12" style="edgeStyle=orthogonalEdgeStyle;rounded=0;orthogonalLoop=1;jettySize=auto;html=1;exitX=0;exitY=0.5;exitDx=0;exitDy=0;entryX=1;entryY=0.5;entryDx=0;entryDy=0;" edge="1" parent="1" source="24zMw3zpbfvIC8_C8cyf-9" target="24zMw3zpbfvIC8_C8cyf-6">
          <mxGeometry relative="1" as="geometry" />
        </mxCell>
        <mxCell id="24zMw3zpbfvIC8_C8cyf-9" value="visualiser les ilots de chaleurs " style="ellipse;whiteSpace=wrap;html=1;" parent="1" vertex="1">
          <mxGeometry x="440" y="210" width="120" height="90" as="geometry" />
        </mxCell>
        <mxCell id="ATF7IUseUkX2ETucgYgJ-13" style="edgeStyle=orthogonalEdgeStyle;rounded=0;orthogonalLoop=1;jettySize=auto;html=1;exitX=0;exitY=0.5;exitDx=0;exitDy=0;" edge="1" parent="1" source="24zMw3zpbfvIC8_C8cyf-10">
          <mxGeometry relative="1" as="geometry">
            <mxPoint x="400" y="390" as="targetPoint" />
          </mxGeometry>
        </mxCell>
        <mxCell id="24zMw3zpbfvIC8_C8cyf-10" value="visualiser les risques d&#39;inondations" style="ellipse;whiteSpace=wrap;html=1;" parent="1" vertex="1">
          <mxGeometry x="440" y="315" width="120" height="90" as="geometry" />
        </mxCell>
        <mxCell id="ATF7IUseUkX2ETucgYgJ-14" style="edgeStyle=orthogonalEdgeStyle;rounded=0;orthogonalLoop=1;jettySize=auto;html=1;entryX=1;entryY=0.5;entryDx=0;entryDy=0;" edge="1" parent="1" source="24zMw3zpbfvIC8_C8cyf-11" target="24zMw3zpbfvIC8_C8cyf-6">
          <mxGeometry relative="1" as="geometry" />
        </mxCell>
        <mxCell id="24zMw3zpbfvIC8_C8cyf-11" value="visualiser les retrait-gonflement d&#39;argile " style="ellipse;whiteSpace=wrap;html=1;" parent="1" vertex="1">
          <mxGeometry x="440" y="420" width="120" height="90" as="geometry" />
        </mxCell>
        <mxCell id="ATF7IUseUkX2ETucgYgJ-15" style="edgeStyle=orthogonalEdgeStyle;rounded=0;orthogonalLoop=1;jettySize=auto;html=1;exitX=0;exitY=0.5;exitDx=0;exitDy=0;" edge="1" parent="1" source="24zMw3zpbfvIC8_C8cyf-19">
          <mxGeometry relative="1" as="geometry">
            <mxPoint x="400" y="390" as="targetPoint" />
          </mxGeometry>
        </mxCell>
        <mxCell id="24zMw3zpbfvIC8_C8cyf-19" value="accéder à la description des indicateurs depuis la légende détaillée/documentation" style="ellipse;whiteSpace=wrap;html=1;" parent="1" vertex="1">
          <mxGeometry x="430" y="523" width="146" height="100" as="geometry" />
        </mxCell>
      </root>
    </mxGraphModel>
  </diagram>
</mxfile>
